<?xml version="1.0" encoding="UTF-8" standalone="no"?>
<!-- Created with Inkscape (http://www.inkscape.org/) -->

<svg
   version="1.1"
   id="svg1"
   width="52mm"
   height="22mm"
   viewBox="0 0 142.6287 60.342914"
   sodipodi:docname="htw.svg"
   inkscape:version="1.3.2 (091e20e, 2023-11-25)"
   xmlns:inkscape="http://www.inkscape.org/namespaces/inkscape"
   xmlns:sodipodi="http://sodipodi.sourceforge.net/DTD/sodipodi-0.dtd"
   xmlns="http://www.w3.org/2000/svg"
   xmlns:svg="http://www.w3.org/2000/svg">
  <defs
     id="defs1" />
  <sodipodi:namedview
     id="namedview1"
     pagecolor="#ffffff"
     bordercolor="#000000"
     borderopacity="0.25"
     inkscape:showpageshadow="2"
     inkscape:pageopacity="0.0"
     inkscape:pagecheckerboard="0"
     inkscape:deskcolor="#d1d1d1"
     inkscape:zoom="2.0816183"
     inkscape:cx="103.04483"
     inkscape:cy="56.926863"
     inkscape:window-width="1392"
     inkscape:window-height="982"
     inkscape:window-x="0"
     inkscape:window-y="25"
     inkscape:window-maximized="0"
     inkscape:current-layer="g1"
     inkscape:document-units="mm">
    <inkscape:page
       x="0"
       y="0"
       inkscape:label="1"
       id="page1"
       width="142.62871"
       height="60.342915"
       margin="0"
       bleed="0" />
  </sodipodi:namedview>
  <g
     id="g1"
     inkscape:groupmode="layer"
     inkscape:label="1">
    <path
       id="path68"
       d="m 106.2912,21.264532 h 7.0864 v 14.173333 h -7.0864 v -14.173333 0"
       style="fill:#76b900;fill-opacity:1;fill-rule:nonzero;stroke:none;stroke-width:0.133333" />
    <path
       id="path69"
       d="m 120.464,35.437865 v 7.086 h -7.0864 v -7.086 h 7.0864 v 0"
       style="fill:#76b900;fill-opacity:1;fill-rule:nonzero;stroke:none;stroke-width:0.133333" />
    <path
       id="path70"
       d="m 56.684932,14.177466 h 7.0864 v 7.087066 h 7.087066 v 7.0864 h -7.087066 v 7.086933 h 7.087066 v 7.086 h -7.087066 c -3.914,0 -7.0864,-3.1724 -7.0864,-7.086 0.0276,0.0032 0,-21.260399 0,-21.260399 v 0"
       style="fill:#76b900;fill-opacity:1;fill-rule:nonzero;stroke:none;stroke-width:0.133333" />
    <path
       id="path71"
       d="m 77.944265,21.264532 h 7.086933 v 14.173333 h 7.087066 V 21.264532 h 7.085867 v 14.173333 h 7.087069 v 7.086 H 85.031198 c -3.913467,0 -7.086933,-3.1724 -7.086933,-7.086 v -14.173333 0"
       style="fill:#76b900;fill-opacity:1;fill-rule:nonzero;stroke:none;stroke-width:0.133333" />
    <path
       id="path72"
       d="M 35.425066,28.350932 V 42.523865 H 28.338533 V 28.350932 h 7.086533 v 0"
       style="fill:#76b900;fill-opacity:1;fill-rule:nonzero;stroke:none;stroke-width:0.133333" />
    <path
       id="path73"
       d="m 35.425066,14.177466 v 7.087066 h -7.086533 v -7.087066 h 7.086533 v 0"
       style="fill:#76b900;fill-opacity:1;fill-rule:nonzero;stroke:none;stroke-width:0.133333" />
    <path
       id="path74"
       d="m 35.421332,21.264532 7.086534,-0.0011 c 3.914,0 7.089999,3.1744 7.089999,7.087466 V 42.523865 H 42.511999 V 28.350932 h -7.086933 l -0.0037,-7.0864 v 0"
       style="fill:#76b900;fill-opacity:1;fill-rule:nonzero;stroke:none;stroke-width:0.133333" />
  </g>
</svg>
