<?xml version="1.0" encoding="UTF-8" standalone="no"?>
<svg
   version="1.1"
   id="svg833"
   width="1580"
   height="327.45801"
   viewBox="314 0 1531.7847 317.4653"
   sodipodi:docname="ki_werkstatt_logo.svg"
   inkscape:version="1.3.2 (091e20e, 2023-11-25)"
   xmlns:inkscape="http://www.inkscape.org/namespaces/inkscape"
   xmlns:sodipodi="http://sodipodi.sourceforge.net/DTD/sodipodi-0.dtd"
   xmlns="http://www.w3.org/2000/svg"
   xmlns:svg="http://www.w3.org/2000/svg"
   xmlns:rdf="http://www.w3.org/1999/02/22-rdf-syntax-ns#"
   xmlns:cc="http://creativecommons.org/ns#"
   xmlns:dc="http://purl.org/dc/elements/1.1/">
  <metadata
     id="metadata839">
    <rdf:RDF>
      <cc:Work
         rdf:about="">
        <dc:format>image/svg+xml</dc:format>
        <dc:type
           rdf:resource="http://purl.org/dc/dcmitype/StillImage" />
      </cc:Work>
    </rdf:RDF>
  </metadata>
  <defs
     id="defs837" />
  <sodipodi:namedview
     pagecolor="#ffffff"
     bordercolor="#666666"
     borderopacity="1"
     objecttolerance="10"
     gridtolerance="10"
     guidetolerance="10"
     inkscape:pageopacity="0"
     inkscape:pageshadow="2"
     inkscape:window-width="1936"
     inkscape:window-height="912"
     id="namedview835"
     showgrid="false"
     inkscape:zoom="0.41262279"
     inkscape:cx="971.83192"
     inkscape:cy="536.8099"
     inkscape:window-x="0"
     inkscape:window-y="25"
     inkscape:window-maximized="0"
     inkscape:current-layer="g841"
     inkscape:showpageshadow="2"
     inkscape:pagecheckerboard="0"
     inkscape:deskcolor="#d1d1d1" />
  <g
     inkscape:groupmode="layer"
     inkscape:label="Image"
     id="g841">
    <path
       style="fill:#000000;stroke-width:1.41435"
       d="m 716.56039,262.7369 h -59.40277 v -14.8507 -14.85068 h 59.40277 59.40277 v 14.85068 14.8507 z m 335.29521,-29.81383 c -7.4745,-0.0119 -7.6679,-0.98885 -12.6034,-2.06001 -4.9354,-1.07116 -12.0837,-3.94335 -15.885,-6.38265 -3.8013,-2.4393 -8.8351,-7.05085 -11.1863,-10.2479 -2.3511,-3.19704 -5.6591,-9.34377 -7.351,-13.65941 -2.5115,-6.40616 -3.0846,-10.83246 -3.1219,-24.11166 -0.038,-13.61071 0.4724,-17.56845 3.1288,-24.25201 1.7459,-4.39283 5.7796,-10.94666 8.9637,-14.56405 3.1842,-3.61739 8.7721,-8.08851 12.4176,-9.93581 3.6454,-1.8473 10.6502,-4.08807 15.5659,-4.97949 6.7164,-1.2179 11.3254,-1.21805 18.5437,-5.4e-4 6.0622,1.02254 12.3447,3.27536 17.0312,6.1072 4.3962,2.65648 9.3381,7.28143 12.1138,11.33681 2.5784,3.76742 5.6499,10.0884 6.8254,14.04664 1.1755,3.95824 2.1372,11.53649 2.1372,16.84056 v 9.64375 h -41.0162 -41.0162 v 4.19 c 0,2.30451 1.2826,7.61798 2.8502,11.80772 1.5676,4.18973 5.1383,9.90581 7.9349,12.70238 2.7965,2.79657 7.9918,6.0753 11.5452,7.28603 3.5534,1.21075 9.9331,2.20137 14.1771,2.20137 4.2441,0 10.1819,-0.73865 13.1952,-1.64145 3.0132,-0.90277 7.9695,-3.77358 11.014,-6.37955 3.1783,-2.72048 6.5681,-7.44199 7.9604,-11.08772 l 2.425,-6.34961 h 7.6819 c 7.3004,0 7.6358,0.15816 6.7488,3.18229 -0.5134,1.75027 -2.1505,5.77623 -3.6379,8.94658 -1.4875,3.17035 -4.8598,8.2823 -7.4941,11.35986 -2.6344,3.07758 -7.8821,7.27046 -11.6617,9.31754 -3.7796,2.04708 -10.6486,4.41352 -15.2644,5.25877 -4.6157,0.84524 -1.599,1.44089 -12.0219,1.42436 z m -1.3275,-64.94773 h 34.1252 l -0.961,-6.011 c -0.5285,-3.30604 -2.5362,-8.69903 -4.4615,-11.98439 -2.0589,-3.51364 -6.0782,-7.48416 -9.7606,-9.64218 -3.6943,-2.16502 -9.4414,-3.99711 -14.0215,-4.46982 -4.2687,-0.44056 -10.7077,-0.0591 -14.3089,0.84769 -3.6011,0.90679 -8.9628,3.24708 -11.9149,5.20065 -2.9613,1.95971 -7.0381,6.62183 -9.0947,10.40025 -2.0499,3.76658 -3.7273,8.83068 -3.7273,11.25355 v 4.40525 z m 331.4847,64.23081 c -5.4453,0.36768 -13.3241,0.0617 -17.5086,-0.68009 -4.1844,-0.74173 -10.2309,-2.5214 -13.4363,-3.95483 -3.2055,-1.43342 -7.6425,-4.44167 -9.8599,-6.68495 -2.2173,-2.2433 -5.2064,-6.38146 -6.6422,-9.19591 -1.4358,-2.81444 -3.045,-8.39178 -3.5759,-12.39412 l -0.9654,-7.27693 h 7.6265 7.6264 l 1.74,7.32439 c 0.9569,4.02842 3.1759,8.88582 4.9312,10.79421 1.7554,1.90841 5.7374,4.64481 8.849,6.0809 3.9377,1.81734 9.0032,2.62049 16.664,2.64212 6.285,0.0176 13.0314,-0.81493 15.7266,-1.94107 2.596,-1.08467 5.7579,-3.45389 7.0263,-5.26492 1.2686,-1.81105 2.3065,-5.09218 2.3065,-7.29141 0,-2.19922 -0.9679,-5.87011 -2.1507,-8.15753 -1.1829,-2.28742 -4.5243,-5.35171 -7.4255,-6.80954 -2.9009,-1.45783 -11.4098,-4.61008 -18.9085,-7.00503 -7.4986,-2.39495 -16.6603,-5.77707 -20.3594,-7.51584 -3.6991,-1.73877 -8.8352,-5.27102 -11.4136,-7.84945 -2.5784,-2.57843 -5.4022,-7.33976 -6.2748,-10.58074 -0.8728,-3.24099 -1.1633,-8.17808 -0.6457,-10.97132 0.5176,-2.79323 2.216,-7.15273 3.7741,-9.68776 1.5582,-2.53504 5.4827,-6.15423 8.721,-8.04264 3.2383,-1.88841 10.184,-4.17572 15.4348,-5.08291 7.2478,-1.25222 11.811,-1.25514 18.9489,-0.0121 5.1711,0.90052 11.6948,2.81693 14.4971,4.25872 2.8023,1.44177 6.8116,4.42996 8.9095,6.6404 2.098,2.21046 4.8029,6.38528 6.0109,9.2774 1.2082,2.89211 2.1966,7.18821 2.1966,9.54687 0,4.25529 -0.06,4.28851 -7.7789,4.28851 -7.395,0 -7.7789,-0.17797 -7.7789,-3.60611 0,-1.98336 -0.9969,-5.5339 -2.2153,-7.89008 -1.3274,-2.56691 -4.5871,-5.36073 -8.1326,-6.97045 -4.0011,-1.81655 -9.17,-2.69657 -15.9621,-2.71757 -8.1157,-0.0251 -10.9469,0.58013 -14.7416,3.15122 -2.5833,1.75027 -5.2565,4.87332 -5.9406,6.94013 -0.8578,2.59179 -0.5957,5.30885 0.8447,8.75637 1.4291,3.42008 3.9575,5.95201 8.0069,8.01789 3.2552,1.66064 13.277,5.55666 22.2707,8.65781 8.9937,3.10115 17.9939,6.49909 20.0005,7.55095 2.0066,1.05186 5.6777,4.03527 8.1582,6.62979 2.4804,2.59452 5.1853,6.50901 6.011,8.69887 0.8256,2.18983 1.5011,6.66929 1.5011,9.95435 0,3.38468 -1.379,8.70241 -3.1822,12.27209 -1.7503,3.46459 -5.347,7.73779 -7.9927,9.49597 -2.6455,1.75819 -7.1008,3.81303 -9.9005,4.56631 -2.7995,0.75329 -9.5454,1.67043 -14.9906,2.03809 z m 89.1041,0.13083 c -3.8894,0.34872 -8.4311,-0.0528 -10.0926,-0.89224 -1.6615,-0.83945 -3.73,-3.0825 -4.5966,-4.98456 -1.0461,-2.29565 -1.5757,-17.69986 -1.5757,-45.82222 v -42.36401 h -11.3149 -11.3148 v -7.07175 -7.07176 h 11.3148 11.3149 V 110.82705 97.523664 l 6.6165,-2.254481 c 3.6391,-1.239963 7.1396,-2.25448 7.7789,-2.25448 0.6393,0 1.1624,7.001047 1.1624,15.557867 v 15.55787 h 16.265 16.2651 v 7.07176 7.07175 h -16.2651 -16.265 v 40.35366 40.35366 l 15.2043,-0.83931 c 8.3623,-0.46162 16.6362,-1.1303 18.3865,-1.48594 2.9545,-0.60032 3.1823,-0.15148 3.1823,6.26989 v 6.9165 l -14.497,0.93032 c -7.9734,0.51165 -17.6795,1.2156 -21.569,1.56432 z m 96.176,-0.10099 c -4.6674,0.35095 -10.7138,0.1256 -13.4363,-0.50092 -2.7227,-0.62645 -6.5661,-1.79619 -8.5408,-2.59942 -1.9749,-0.80322 -5.9168,-4.03514 -8.7599,-7.18206 -2.9196,-3.23169 -5.5825,-7.92537 -6.1192,-10.78557 -0.5225,-2.78515 -0.6922,-9.1113 -0.3772,-14.05812 0.4522,-7.10079 1.3969,-10.07479 4.4879,-14.12726 2.1534,-2.82319 6.265,-6.32244 9.137,-7.77613 2.8721,-1.45367 7.4495,-3.13943 10.1722,-3.74615 2.7225,-0.6067 15.1335,-2.12694 27.5798,-3.37831 l 22.6297,-2.2752 -0.1068,-5.77894 c -0.058,-3.17843 -1.3848,-8.25955 -2.9471,-11.2914 -1.7681,-3.43144 -5.0879,-6.76652 -8.7941,-8.8344 -3.4288,-1.9132 -9.3764,-3.62932 -14.025,-4.04675 -4.4394,-0.39864 -10.7475,-7e-4 -14.0182,0.88404 -3.2706,0.88486 -7.9716,3.31262 -10.4463,5.39505 -2.4749,2.08243 -5.3678,5.864 -6.4289,8.40349 -1.0611,2.53961 -1.9293,6.22897 -1.9293,8.19869 0,3.40854 -0.3845,3.5813 -7.9711,3.5813 h -7.9712 l 0.9051,-6.60365 c 0.4978,-3.63201 2.4892,-9.3067 4.4253,-12.61042 1.9362,-3.30373 6.1602,-8.26641 9.3866,-11.02819 3.2266,-2.76177 9.1183,-6.13264 13.0928,-7.49083 4.5591,-1.55797 11.4026,-2.45815 18.5411,-2.43883 9.0971,0.0246 12.8635,0.74041 19.2161,3.65208 4.3457,1.99183 10.1427,5.86303 12.8824,8.60269 2.7397,2.73964 6.5034,8.07328 8.3638,11.85252 3.1734,6.44631 3.4263,8.79605 4.0898,37.98708 l 0.7072,31.11574 7.4253,0.4275 7.4254,0.4275 v 7.1476 7.14761 l -11.1708,-0.50729 c -8.6889,-0.39459 -11.8697,-1.13484 -14.3172,-3.33206 -2.9155,-2.61738 -3.087,-3.68138 -2.3344,-14.49315 0.7396,-10.62835 0.5832,-11.6684 -1.7557,-11.6684 -1.7338,0 -3.3439,2.03244 -4.9574,6.2573 -1.3144,3.44151 -4.2185,8.78192 -6.4538,11.86757 -2.4861,3.43202 -6.987,7.0386 -11.5923,9.28901 -4.5741,2.23512 -10.8586,3.92913 -16.0145,4.31682 z m 1.6968,-13.9547 c 5.3591,-0.41807 11.4086,-2.03092 15.5579,-4.1479 3.7341,-1.90513 8.502,-5.27347 10.5953,-7.48521 2.0934,-2.21175 5.1026,-6.88541 6.6872,-10.38594 1.5845,-3.50051 2.895,-9.05361 2.9121,-12.34022 0.03,-5.7427 -0.1205,-5.94972 -3.8585,-5.31079 -2.1392,0.36567 -12.977,1.61562 -24.0838,2.77769 -11.2041,1.17222 -22.0471,3.07082 -24.3557,4.26467 -2.2887,1.1835 -4.8165,3.37631 -5.6175,4.87291 -0.8009,1.49672 -1.4563,5.8595 -1.4563,9.69521 0,5.00975 0.8625,8.07052 3.0624,10.86712 1.6843,2.14122 5.0257,4.78942 7.4253,5.88489 2.9126,1.32957 7.2781,1.76432 13.1316,1.30769 z m 112.8657,14.0602 c -3.8895,0.35122 -8.4387,0.0591 -10.1093,-0.64898 -1.6707,-0.70818 -3.5801,-2.12777 -4.2431,-3.15465 -0.663,-1.02676 -1.5237,-21.59714 -1.9127,-45.71183 l -0.7071,-43.8449 -11.6684,-0.41078 -11.6684,-0.41079 v -7.01456 -7.01456 h 12.0219 12.022 v -13.47135 c 0,-12.68005 0.187,-13.540198 3.1823,-14.643587 1.7503,-0.644737 4.9327,-1.595801 7.0718,-2.113469 l 3.8894,-0.941224 v 15.58482 15.58481 h 16.9722 16.9723 v 7.07176 7.07175 h -16.9723 -16.9722 v 40.39436 40.39436 l 13.79,-0.84198 c 7.5845,-0.46309 16.1767,-1.14546 19.0937,-1.5164 l 5.3038,-0.67443 v 6.90627 6.90628 l -14.4971,0.93032 c -7.9734,0.51165 -17.6794,1.21765 -21.5688,1.56889 z m 89.1042,-0.004 c -3.8895,0.34872 -8.4313,-0.0528 -10.0927,-0.89223 -1.6616,-0.83945 -3.7301,-3.0825 -4.5967,-4.98456 -1.046,-2.29592 -1.5757,-17.70013 -1.5757,-45.8225 v -42.3645 h -11.3148 -11.3148 v -7.07176 -7.07176 h 11.3148 11.3148 V 110.82705 97.523664 l 6.6165,-2.254481 c 3.6391,-1.239963 7.1396,-2.25448 7.779,-2.25448 0.6393,0 1.1623,7.001047 1.1623,15.557867 v 15.55787 h 16.2652 16.2649 v 7.07176 7.07175 h -16.2649 -16.2652 v 40.35366 40.35366 l 15.2043,-0.83931 c 8.3625,-0.46162 16.6364,-1.1303 18.3866,-1.48594 2.9544,-0.60032 3.1823,-0.15148 3.1823,6.26989 v 6.9165 l -14.4972,0.93032 c -7.9733,0.51165 -17.6793,1.2156 -21.5687,1.56432 z M 382.06622,230.20655 H 362.97247 V 155.24618 80.285541 h 19.09375 19.09375 v 24.043979 c 0,16.41192 0.48942,24.04397 1.54185,24.04397 0.84801,0 14.17178,-10.8331 29.60838,-24.07355 l 28.06652,-24.073563 28.16084,0.383167 28.16086,0.383174 -44.23379,36.773152 c -24.32859,20.22522 -44.11928,37.18068 -43.9793,37.67881 0.13998,0.49813 20.20501,17.52338 44.58899,37.83391 l 44.33449,36.92822 h -28.55398 -28.554 L 432.1529,206.16283 c -15.48136,-13.22419 -28.78805,-24.04398 -29.57043,-24.04398 -0.89799,0 -1.4225,8.86575 -1.4225,24.04398 v 24.04398 z m 200.83794,0 h -53.03819 v -17.67939 -17.6794 h 16.97222 16.97222 V 155.24618 115.64434 H 546.83819 529.86597 V 97.964938 80.285541 h 53.03819 53.03819 v 17.679397 17.679402 h -16.97223 -16.97221 v 39.60184 39.60184 h 16.97221 16.97223 v 17.67939 17.6794 z M 890.89217,85.235755 c -1.64453,1.899242 -1.15425,1.274099 -16.13111,72.131935 -8.38539,39.67257 -15.26978,72.29105 -15.29865,72.48552 -0.0289,0.19448 -7.69,0.35359 -17.02472,0.35359 v 1e-5 c -9.33472,0 -16.55251,0.15464 -16.55447,-0.42878 -0.002,-0.58342 -7.42431,-34.4279 -15.9792,-74.43754 -8.55486,-40.00964 -15.55429,-73.264585 -15.55429,-73.899872 l 14.19602,0.09227 c 0,0 6.91045,31.919202 15.2924,71.591762 14.29171,67.64406 14.57084,67.70628 16.02312,72.58472 l 5.6913,0.0603 c 0.38216,-1.02694 7.47824,-33.89177 15.2541,-71.23065 7.77585,-37.33888 14.13154,-73.949047 15.92635,-74.050372 4.44604,-0.250993 0.24026,-0.203088 16.62134,-0.203088 16.38107,0 12.32425,-0.196865 16.02548,0.0541 1.79355,0.121623 8.74635,36.86045 16.5222,74.19933 7.77586,37.33889 14.1841,71.48919 15.27965,71.46906 l 4.09327,-0.0752 c 0,0 3.30388,-5.1641 17.5956,-72.80818 8.38194,-39.67255 15.26352,-72.291046 15.29239,-72.485519 0.0289,-0.194472 3.23479,-0.353584 7.12426,-0.353584 3.88948,0 5.8818,0.336109 6.32696,-0.146665 0,0 -6.25624,35.510558 -14.81306,75.814478 -8.55683,40.30392 -15.55788,73.49892 -15.55788,73.76666 0,0.26774 -7.59238,0.4868 -16.87194,0.4868 h -16.87194 l -1.57465,-7.42535 c -0.86607,-4.08394 -7.78078,-36.70243 -15.36603,-72.48552 C 897.03283,86.488527 896.06912,88.363916 894.76513,85.198517 M 1136.6229,230.20681 h -7.0718 v -50.75997 c 0,-47.91243 0.152,-50.94729 2.7097,-54.09894 2.3597,-2.9077 3.867,-3.32042 11.6685,-3.19518 4.9271,0.0791 19.6193,0.62418 32.649,1.21133 l 23.6903,1.06751 v 6.56761 6.56761 l -27.2277,-0.92366 c -14.9751,-0.50802 -27.705,-0.62957 -28.2884,-0.27012 -0.5834,0.35945 -1.0608,21.6191 -1.0608,47.24368 v 46.59013 z m 93.3061,0 h -7.0307 V 152.41747 74.62813 h 7.0718 7.0717 v 49.41883 c 0,27.18036 0.5112,49.73481 1.1361,50.121 0.6248,0.38617 13.3356,-5.9865 28.2461,-14.16151 l 27.11,-14.86364 -0.7354,-6.61672 c -0.4044,-3.63919 -1.0065,-8.36697 -1.338,-10.50619 -0.5942,-3.83413 -0.495,-3.88946 6.9759,-3.88946 6.6637,0 7.6816,0.38417 8.4314,3.18229 0.469,1.75026 0.8615,8.0039 0.8722,13.89697 0.017,9.33373 -0.3957,11.10453 -3.2005,13.73943 -1.7707,1.6636 -9.3849,6.43133 -16.9201,10.59495 l -13.7005,7.57022 20.4265,28.54626 20.4264,28.54625 h -8.9253 -8.9252 l -17.5643,-24.72049 c -9.6603,-13.59626 -18.2006,-24.71336 -18.9785,-24.70466 -0.7779,0.009 -6.1878,2.72655 -12.0221,6.03967 l -10.6075,6.02383 -0.3947,18.68082 -0.3946,18.68083 z"
       id="path851"
       sodipodi:nodetypes="cccccccccssssssssssssssscccsssssssscsssssssccssssssssccsssssscccssssssssssssssssssssssssssssssssssssssssssssscccccccccssscccccccccssscsssssssssssssccsssssssscssssssssscccccssssssssssssssssssssssssssscccccccssscccccccccccsscccssssssscccccccccssscccccccccssscsssccccccssscccssscccsssccccccccccccccccccccccccccccsssccsccscssssssssssssssscssccsssscccsssccccccccssscssssssscccccsssccccc" />
  </g>
</svg>
